HIERARCHY
ROOT hip
{
  OFFSET 11.0045 71.4325 -293.348
  CHANNELS 6 Xposition Yposition Zposition Zrotation Xrotation Yrotation
  JOINT abdomen
  {
    OFFSET 0 20.6881 -0.73152
    CHANNELS 3 Zrotation Xrotation Yrotation
    JOINT chest
    {
      OFFSET 0 11.7043 -0.48768
      CHANNELS 3 Zrotation Xrotation Yrotation
      JOINT neck
      {
        OFFSET 0 22.1894 -2.19456
        CHANNELS 3 Zrotation Xrotation Yrotation
        JOINT head
        {
          OFFSET -0.24384 7.07133 1.2192
          CHANNELS 3 Zrotation Xrotation Yrotation
          JOINT leftEye
          {
            OFFSET 4.14528 8.04674 8.04672
            CHANNELS 3 Zrotation Xrotation Yrotation
            End Site
            {
              OFFSET 1 0 0
            }
          }
          JOINT rightEye
          {
            OFFSET -3.6576 8.04674 8.04672
            CHANNELS 3 Zrotation Xrotation Yrotation
            End Site
            {
              OFFSET 1 0 0
            }
          }
        }
      }
      JOINT rCollar
      {
        OFFSET -2.68224 19.2634 -4.8768
        CHANNELS 3 Zrotation Xrotation Yrotation
        JOINT rShldr
        {
          OFFSET -8.77824 -1.95073 1.46304
          CHANNELS 3 Zrotation Xrotation Yrotation
          JOINT rForeArm
          {
            OFFSET -28.1742 -1.7115 0.48768
            CHANNELS 3 Zrotation Xrotation Yrotation
            JOINT rHand
            {
              OFFSET -22.5879 0.773209 7.07136
              CHANNELS 3 Zrotation Xrotation Yrotation
              JOINT rThumb1
              {
                OFFSET -1.2192 -0.487915 3.41376
                CHANNELS 3 Zrotation Xrotation Yrotation
                JOINT rThumb2
                {
                  OFFSET -3.37035 -0.52449 3.41376
                  CHANNELS 3 Zrotation Xrotation Yrotation
                  End Site
                  {
                    OFFSET -1.78271 -1.18214 1.43049
                  }
                }
              }
              JOINT rIndex1
              {
                OFFSET -7.75947 0.938293 5.60832
                CHANNELS 3 Zrotation Xrotation Yrotation
                JOINT rIndex2
                {
                  OFFSET -2.54057 -0.884171 1.56538
                  CHANNELS 3 Zrotation Xrotation Yrotation
                  End Site
                  {
                    OFFSET -1.62519 -0.234802 1.16502
                  }
                }
              }
              JOINT rMid1
              {
                OFFSET -8.24714 1.18213 3.41376
                CHANNELS 3 Zrotation Xrotation Yrotation
                JOINT rMid2
                {
                  OFFSET -3.10165 -0.590103 1.0647
                  CHANNELS 3 Zrotation Xrotation Yrotation
                  End Site
                  {
                    OFFSET -2.48547 -0.328903 0.83742
                  }
                }
              }
              JOINT rRing1
              {
                OFFSET -8.82822 0.546677 1.51678
                CHANNELS 3 Zrotation Xrotation Yrotation
                JOINT rRing2
                {
                  OFFSET -2.60934 -0.819778 -0.0198488
                  CHANNELS 3 Zrotation Xrotation Yrotation
                  End Site
                  {
                    OFFSET -2.33842 -0.294052 0.168128
                  }
                }
              }
              JOINT rPinky1
              {
                OFFSET -8.27202 -0.0477905 -0.4584
                CHANNELS 3 Zrotation Xrotation Yrotation
                JOINT rPinky2
                {
                  OFFSET -1.82734 -0.647385 -0.700984
                  CHANNELS 3 Zrotation Xrotation Yrotation
                  End Site
                  {
                    OFFSET -1.69225 -0.51767 -0.607171
                  }
                }
              }
            }
          }
        }
      }
      JOINT lCollar
      {
        OFFSET 2.68224 19.2634 -4.8768
        CHANNELS 3 Zrotation Xrotation Yrotation
        JOINT lShldr
        {
          OFFSET 8.77824 -1.95073 1.46304
          CHANNELS 3 Zrotation Xrotation Yrotation
          JOINT lForeArm
          {
            OFFSET 28.1742 -1.7115 0.48768
            CHANNELS 3 Zrotation Xrotation Yrotation
            JOINT lHand
            {
              OFFSET 22.5879 0.773209 7.07136
              CHANNELS 3 Zrotation Xrotation Yrotation
              JOINT lThumb1
              {
                OFFSET 1.2192 -0.487915 3.41376
                CHANNELS 3 Zrotation Xrotation Yrotation
                JOINT lThumb2
                {
                  OFFSET 3.37035 -0.52449 3.41376
                  CHANNELS 3 Zrotation Xrotation Yrotation
                  End Site
                  {
                    OFFSET 1.78271 -1.18214 1.43049
                  }
                }
              }
              JOINT lIndex1
              {
                OFFSET 7.75947 0.938293 5.60832
                CHANNELS 3 Zrotation Xrotation Yrotation
                JOINT lIndex2
                {
                  OFFSET 2.54057 -0.884171 1.56538
                  CHANNELS 3 Zrotation Xrotation Yrotation
                  End Site
                  {
                    OFFSET 1.62519 -0.234802 1.16502
                  }
                }
              }
              JOINT lMid1
              {
                OFFSET 8.24714 1.18213 3.41376
                CHANNELS 3 Zrotation Xrotation Yrotation
                JOINT lMid2
                {
                  OFFSET 3.10165 -0.590103 1.0647
                  CHANNELS 3 Zrotation Xrotation Yrotation
                  End Site
                  {
                    OFFSET 2.48547 -0.328903 0.83742
                  }
                }
              }
              JOINT lRing1
              {
                OFFSET 8.82822 0.546677 1.51678
                CHANNELS 3 Zrotation Xrotation Yrotation
                JOINT lRing2
                {
                  OFFSET 2.60934 -0.819778 -0.0198488
                  CHANNELS 3 Zrotation Xrotation Yrotation
                  End Site
                  {
                    OFFSET 2.33842 -0.294052 0.168128
                  }
                }
              }
              JOINT lPinky1
              {
                OFFSET 8.27202 -0.0477905 -0.4584
                CHANNELS 3 Zrotation Xrotation Yrotation
                JOINT lPinky2
                {
                  OFFSET 1.82734 -0.647385 -0.700984
                  CHANNELS 3 Zrotation Xrotation Yrotation
                  End Site
                  {
                    OFFSET 1.69225 -0.51767 -0.607171
                  }
                }
              }
            }
          }
        }
      }
    }
  }
  JOINT rButtock
  {
    OFFSET -8.77824 4.35084 1.2192
    CHANNELS 3 Zrotation Xrotation Yrotation
    JOINT rThigh
    {
      OFFSET 0 -1.70687 -2.19456
      CHANNELS 3 Zrotation Xrotation Yrotation
      JOINT rShin
      {
        OFFSET 0 -36.8199 0.73152
        CHANNELS 3 Zrotation Xrotation Yrotation
        JOINT rFoot
        {
          OFFSET 0.73152 -45.1104 -5.12064
          CHANNELS 3 Zrotation Xrotation Yrotation
          End Site
          {
            OFFSET -1.1221 -3.69964 12.103
          }
        }
      }
    }
  }
  JOINT lButtock
  {
    OFFSET 8.77824 4.35084 1.2192
    CHANNELS 3 Zrotation Xrotation Yrotation
    JOINT lThigh
    {
      OFFSET 0 -1.70687 -2.19456
      CHANNELS 3 Zrotation Xrotation Yrotation
      JOINT lShin
      {
        OFFSET 0 -36.8199 0.73152
        CHANNELS 3 Zrotation Xrotation Yrotation
        JOINT lFoot
        {
          OFFSET -0.73152 -45.1104 -5.12064
          CHANNELS 3 Zrotation Xrotation Yrotation
          End Site
          {
            OFFSET 1.1221 -3.69964 12.103
          }
        }
      }
    }
  }
}
MOTION
Frames:	4
Frame Time:	0.00833333
-0.336313 74.096 150.137 -1.19749 0.00337748 0.0224838 1.57506 -0.00270774 0.0428967 0.434171 0.0015166 0.0751883 -2.94924e-015 7.95139e-016 4.22417e-016 -8.83349e-015 9.54166e-015 1.2129e-015 -0 0 0 -0 0 0 -1.29404e-015 -9.90041e-017 3.97569e-016 -3.10131e-014 -2.04375e-015 4.57205e-015 -5.59132e-013 8.8658e-014 9.54166e-014 -6.24828e-012 -5.30034e-013 7.60153e-013 -1.47707e-011 -9.59355e-013 1.87335e-012 -2.55212e-011 -1.66343e-012 3.22667e-012 -1.47669e-011 -9.59335e-013 1.86062e-012 7.73091 5.47488 0.417314 -1.47716e-011 -9.59534e-013 1.87017e-012 2.90554 0.965183 0.102902 -1.4767e-011 -9.59534e-013 1.87017e-012 10.2786 0.731801 0.0259123 -1.47816e-011 -9.56552e-013 1.88289e-012 2.22167 -0.733487 -0.20892 -1.58843e-015 -1.00169e-016 0 -3.22211e-014 -2.14315e-015 3.37934e-015 -5.40247e-013 -2.33174e-013 8.26944e-014 -6.28749e-012 -2.00996e-013 7.85597e-013 -1.48033e-011 -9.43361e-013 1.86062e-012 -2.55514e-011 -1.63162e-012 3.22111e-012 -1.48063e-011 -9.44625e-013 1.87653e-012 -7.73091 5.47488 -0.417314 -1.48026e-011 -9.4383e-013 1.86381e-012 -2.90554 0.965183 -0.102902 -1.4807e-011 -9.43531e-013 1.8654e-012 -10.2786 0.731801 -0.0259123 -1.47971e-011 -9.39456e-013 1.85426e-012 -2.22167 -0.733487 0.20892 -2.03217e-016 0 -3.88251e-019 1.70426 -6.60407 -0.159302 0.00259091 6.39977 0.0733991 -0.527401 0.199701 0.0640172 2.03217e-016 0 3.88251e-019 0.691657 -1.9236 0.00558774 0.00918014 -2.07857 0.0757691 0.50335 3.99746 -0.139013 
-3.14298 72.0488 143.834 -0.242034 2.43345 47.9345 -0.590726 2.68649 -3.00077 1.59788 -1.15259 -0.73947 -0.790849 -0.913573 -0.0523442 0.0438723 -6.4356 0.317657 -0 0 0 -0 0 0 -1.3546e-014 -7.02173e-014 7.02114e-015 21.3746 5.689 -13.4215 -14.5289 -11.7043 14.4048 0.0194021 -3.09109 -0.432145 -4.85858e-011 1.33243e-011 5.93602e-011 -8.39971e-011 2.30038e-011 1.02528e-010 -4.85825e-011 1.33241e-011 5.93502e-011 7.73091 5.47488 0.417314 -4.85871e-011 1.33242e-011 5.93579e-011 2.90554 0.965183 0.102902 -4.85814e-011 1.33243e-011 5.93589e-011 10.2786 0.731801 0.0259123 -4.85934e-011 1.33268e-011 5.937e-011 2.22167 -0.733487 -0.20892 -1.37952e-014 -7.02199e-014 6.65074e-015 -22.229 16.1004 1.78813 -2.20989 14.9643 42.0922 -0.077284 -6.19272 0.852264 -1.95178e-010 2.19519e-009 4.74423e-010 -3.44198e-010 3.79114e-009 8.16871e-010 -1.95181e-010 2.19518e-009 4.74433e-010 -7.73091 5.47488 -0.417314 -1.95176e-010 2.19518e-009 4.74424e-010 -2.90554 0.965183 -0.102902 -1.95181e-010 2.19519e-009 4.74427e-010 -10.2786 0.731801 -0.0259123 -1.95173e-010 2.19519e-009 4.74416e-010 -2.22167 -0.733487 0.20892 -2.03217e-016 0 -3.88251e-019 -2.62984 -24.079 -4.34621 -0.235021 14.2452 -0.172889 -0.554562 5.38315 -2.65529 2.03217e-016 0 3.88251e-019 -3.0524 0.876641 -3.29472 -0.0344922 10.099 -0.128604 0.656734 7.70892 -2.42264 
-3.19048 71.8729 140.671 -1.08608 -1.10695 98.4217 -2.61424 5.46484 -6.2579 2.79309 -2.36155 -1.60857 -1.61878 -1.89501 -0.0965528 0.173376 -13.2367 0.688395 -0 0 0 -0 0 0 -1.92842e-014 -1.47341e-013 1.25359e-014 46.7979 10.7016 -28.0596 -23.3842 -21.5661 31.4278 -0.0110999 -6.36484 -0.894113 -1.18413e-010 2.2911e-011 1.05259e-010 -2.04475e-010 3.96367e-011 1.81588e-010 -1.1841e-010 2.29106e-011 1.05252e-010 7.73091 5.47488 0.417314 -1.18414e-010 2.2911e-011 1.05257e-010 2.90554 0.965183 0.102902 -1.18408e-010 2.29112e-011 1.05259e-010 10.2786 0.731801 0.0259123 -1.18417e-010 2.29133e-011 1.05269e-010 2.22167 -0.733487 -0.20892 -1.94831e-014 -1.47345e-013 1.21942e-014 -46.9526 33.1623 4.15022 -18.1197 4.46355 84.7821 0.0466637 -12.7919 1.79509 -3.65873e-010 4.64029e-009 1.00284e-009 -6.4685e-010 8.01611e-009 1.72705e-009 -3.65876e-010 4.64029e-009 1.00285e-009 -7.73091 5.47488 -0.417314 -3.65869e-010 4.64029e-009 1.00284e-009 -2.90554 0.965183 -0.102902 -3.65876e-010 4.6403e-009 1.00285e-009 -10.2786 0.731801 -0.0259123 -3.65869e-010 4.6403e-009 1.00284e-009 -2.22167 -0.733487 0.20892 -2.03217e-016 0 -3.88251e-019 -10.9544 -42.2214 -10.7874 -0.40502 22.432 -0.460003 -0.0280205 10.8761 -5.71848 2.03217e-016 0 3.88251e-019 -6.70978 3.92309 -6.81457 0.0195967 22.6693 -0.366214 1.14956 11.6322 -4.88492 
-3.18056 71.6199 137.508 3.23974 -8.73833 143.089 -4.06209 7.97412 -9.16759 3.82671 -3.45814 -2.37266 -2.37756 -2.74071 -0.157192 0.356536 -19.3044 1.00339 -0 0 0 -0 0 0 -3.80499e-014 -2.10454e-013 2.02683e-014 71.5591 13.3377 -41.4117 -26.296 -25.9162 48.4363 -0.0832419 -9.27116 -1.31169 -1.16216e-010 4.18915e-011 1.74334e-010 -2.00949e-010 7.23382e-011 3.01131e-010 -1.16214e-010 4.18909e-011 1.74329e-010 7.73091 5.47488 0.417314 -1.16218e-010 4.18916e-011 1.74333e-010 2.90554 0.965183 0.102902 -1.1621e-010 4.18919e-011 1.74336e-010 10.2786 0.731801 0.0259123 -1.16217e-010 4.18936e-011 1.74344e-010 2.22167 -0.733487 -0.20892 -3.82086e-014 -2.10459e-013 1.99522e-014 -70.961 48.0638 7.72493 -22.6408 -26.3896 107.046 0.346431 -18.5612 2.68144 -5.55927e-010 6.58745e-009 1.41955e-009 -9.8149e-010 1.13767e-008 2.44417e-009 -5.55931e-010 6.58744e-009 1.41955e-009 -7.73091 5.47488 -0.417314 -5.55922e-010 6.58744e-009 1.41955e-009 -2.90554 0.965183 -0.102902 -5.55929e-010 6.58745e-009 1.41955e-009 -10.2786 0.731801 -0.0259123 -5.55925e-010 6.58745e-009 1.41954e-009 -2.22167 -0.733487 0.20892 -2.03217e-016 0 -3.88251e-019 -24.6343 -57.3069 -21.8277 -0.480741 29.9341 -0.748451 0.909569 15.6076 -8.36946 2.03217e-016 0 3.88251e-019 -9.57319 6.38468 -9.95656 0.180507 34.4526 -0.644287 1.87741 15.0391 -7.17171 
